<svg xmlns="http://www.w3.org/2000/svg" viewBox="0 0 256 256" role="img" aria-label="BuildWarden app icon">
  <defs>
    <linearGradient id="plate" x1="36" y1="20" x2="220" y2="238" gradientUnits="userSpaceOnUse">
      <stop offset="0" stop-color="#18232e"/>
      <stop offset="0.52" stop-color="#0d1218"/>
      <stop offset="1" stop-color="#111820"/>
    </linearGradient>
    <linearGradient id="shield" x1="56" y1="28" x2="204" y2="222" gradientUnits="userSpaceOnUse">
      <stop offset="0" stop-color="#20303d"/>
      <stop offset="0.48" stop-color="#111923"/>
      <stop offset="1" stop-color="#070b10"/>
    </linearGradient>
    <linearGradient id="cyan" x1="64" y1="66" x2="192" y2="176" gradientUnits="userSpaceOnUse">
      <stop offset="0" stop-color="#8cc4ff"/>
      <stop offset="0.5" stop-color="#35d3ff"/>
      <stop offset="1" stop-color="#0a6fde"/>
    </linearGradient>
    <linearGradient id="emerald" x1="56" y1="60" x2="204" y2="206" gradientUnits="userSpaceOnUse">
      <stop offset="0" stop-color="#65f0b2"/>
      <stop offset="1" stop-color="#0f7a43"/>
    </linearGradient>
    <filter id="shadow" x="-20%" y="-20%" width="140%" height="150%">
      <feDropShadow dx="0" dy="12" stdDeviation="12" flood-color="#02070b" flood-opacity="0.62"/>
    </filter>
    <filter id="glow" x="-30%" y="-30%" width="160%" height="160%">
      <feGaussianBlur stdDeviation="2.5" result="blur"/>
      <feMerge>
        <feMergeNode in="blur"/>
        <feMergeNode in="SourceGraphic"/>
      </feMerge>
    </filter>
  </defs>

  <rect x="15" y="15" width="226" height="226" rx="50" fill="url(#plate)" filter="url(#shadow)"/>
  <path d="M128 25 207 52 197 139c-6 43-31 74-69 95-38-21-63-52-69-95L49 52Z" fill="url(#shield)"/>
  <path d="M128 25 207 52 197 139c-6 43-31 74-69 95-38-21-63-52-69-95L49 52Z" fill="none" stroke="url(#emerald)" stroke-width="7" stroke-linejoin="round"/>
  <path d="M63 59 128 37l65 22-2 18-63-21-63 21Z" fill="#2f4758" opacity="0.78"/>

  <g filter="url(#glow)">
    <path d="M83 70h26v116H83Z" fill="url(#cyan)"/>
    <path d="M106 70h50c24 0 42 16 42 37 0 13-7 24-19 31 13 7 21 18 21 33 0 22-18 39-44 39h-50v-24h47c12 0 21-7 21-17s-9-17-21-17h-47v-24h43c12 0 20-7 20-16 0-10-8-17-20-17h-43Z" fill="url(#cyan)"/>
  </g>

  <path d="M72 96h99" stroke="#9bd5ff" stroke-width="8" stroke-linecap="round" opacity="0.9"/>
  <path d="M72 158h105" stroke="#3ad58a" stroke-width="8" stroke-linecap="round" opacity="0.95"/>
  <path d="M94 190h72" stroke="#6ab2ff" stroke-width="6" stroke-linecap="round" opacity="0.75"/>

  <path d="m58 122 18-15v14l-8 6 8 6v14Z" fill="#8cc4ff"/>
  <path d="m198 122-18-15v14l8 6-8 6v14Z" fill="#ffd166"/>
  <circle cx="128" cy="55" r="5" fill="#ffd166"/>
  <circle cx="178" cy="78" r="4" fill="#3ad58a"/>
  <circle cx="76" cy="184" r="3.5" fill="#6ab2ff"/>
  <path d="M73 61 128 42l55 19" fill="none" stroke="#ffffff" stroke-width="3" stroke-linecap="round" opacity="0.24"/>
</svg>
